<?xml version="1.0" encoding="utf-8"?>
<!-- Generator: Adobe Illustrator 16.0.0, SVG Export Plug-In . SVG Version: 6.00 Build 0)  -->
<!DOCTYPE svg PUBLIC "-//W3C//DTD SVG 1.1//EN" "http://www.w3.org/Graphics/SVG/1.1/DTD/svg11.dtd">
<svg version="1.1" id="Layer_1" xmlns="http://www.w3.org/2000/svg" xmlns:xlink="http://www.w3.org/1999/xlink" x="0px" y="0px"
	 width="14px" height="15px" viewBox="0 0 14 15" enable-background="new 0 0 14 15" xml:space="preserve">
<path fill="black" d="M0.577,11.35l-0.516-0.259c-0.089,0.181-0.08,0.392,0.025,0.562c0.104,0.17,0.291,0.272,0.491,0.272V11.35z
	 M12.874,11.35v0.575c0.198,0,0.384-0.104,0.489-0.272c0.105-0.17,0.113-0.381,0.025-0.562L12.874,11.35z M2.69,5.201
	c0-2.229,1.806-4.036,4.035-4.036V0.013c-2.866,0-5.188,2.323-5.188,5.188H2.69z M6.725,1.166c2.229,0,4.035,1.807,4.035,4.036
	h1.153c0-2.866-2.323-5.188-5.188-5.188V1.166z M1.537,5.201c0,1.449-0.364,2.92-0.738,4.045c-0.187,0.559-0.373,1.023-0.511,1.348
	c-0.07,0.162-0.128,0.289-0.168,0.373c-0.02,0.043-0.036,0.075-0.045,0.096c-0.005,0.013-0.009,0.02-0.011,0.023
	c-0.001,0.002-0.002,0.004-0.003,0.005v0.002l0,0l0,0c0-0.002,0-0.002,0.516,0.257c0.515,0.258,0.515,0.258,0.515,0.256l0,0
	c0,0,0,0,0.001,0c0,0,0,0,0.001-0.002c0.001-0.002,0.002-0.004,0.004-0.009c0.002-0.006,0.008-0.018,0.014-0.028
	c0.012-0.026,0.03-0.063,0.052-0.11c0.044-0.095,0.107-0.233,0.182-0.407c0.15-0.348,0.348-0.844,0.546-1.438
	C2.286,8.43,2.69,6.824,2.69,5.201H1.537z M0.577,11.925h12.297v-1.151H0.577V11.925z M12.874,11.35
	c0.517-0.259,0.517-0.259,0.517-0.257l0,0l0,0l-0.002-0.002c0-0.001,0-0.003-0.002-0.005c-0.003-0.005-0.007-0.012-0.011-0.023
	c-0.01-0.021-0.026-0.053-0.047-0.096c-0.038-0.084-0.095-0.211-0.167-0.373c-0.139-0.324-0.325-0.789-0.512-1.348
	c-0.375-1.125-0.737-2.596-0.737-4.045H10.76c0,1.623,0.405,3.229,0.799,4.408c0.197,0.595,0.396,1.091,0.545,1.438
	c0.076,0.174,0.137,0.313,0.182,0.407c0.021,0.047,0.041,0.084,0.053,0.11c0.008,0.012,0.01,0.022,0.016,0.028
	c0.002,0.005,0.004,0.007,0.004,0.009s0.002,0.002,0.002,0.002l0,0l0,0C12.357,11.607,12.357,11.607,12.874,11.35z M8.453,12.118
	c0,0.955-0.773,1.729-1.728,1.729V15c1.589,0,2.88-1.291,2.88-2.882H8.453z M6.725,13.848c-0.955,0-1.729-0.773-1.729-1.729H3.842
	C3.842,13.709,5.133,15,6.725,15V13.848z M4.996,12.118v-0.771H3.842v0.771H4.996z M9.605,12.118v-0.771H8.453v0.771H9.605z"/>
</svg>
